<svg xmlns="http://www.w3.org/2000/svg" width="43" height="41" fill="none" viewBox="0 0 43 41"><g id="🦆 icon &quot;facebook icon&quot;"><path id="Vector" fill="#1877F2" d="M36.55 0H6.45C2.88776 0 0 2.75345 0 6.15V34.85C0 38.2466 2.88776 41 6.45 41H36.55C40.1122 41 43 38.2466 43 34.85V6.15C43 2.75345 40.1122 0 36.55 0Z"/><path id="Vector_2" fill="#fff" d="M29.8648 26.4258L30.8223 20.5H24.8594V16.6562C24.8594 15.0387 25.6908 13.4531 28.3615 13.4531H31.0742V8.4082C31.0742 8.4082 28.6135 8.00781 26.2619 8.00781C21.3488 8.00781 18.1406 10.8426 18.1406 15.9836V20.5H12.6816V26.4258H18.1406V41H24.8594V26.4258H29.8648Z"/></g></svg>