<svg width="48" height="39" viewBox="0 0 48 39" fill="none" xmlns="http://www.w3.org/2000/svg">
<path id="Vector" d="M48 4.65615C46.0933 5.48164 44.228 5.97694 42.4041 6.14204C44.4767 4.9038 45.886 3.12899 46.6321 0.817607C44.6425 1.9733 42.5699 2.75751 40.4145 3.17026C38.9419 1.57147 36.9774 0.50546 34.8299 0.139898C32.6825 -0.225664 30.4739 0.129965 28.5515 1.15085C26.6292 2.17173 25.1022 3.79994 24.2108 5.77939C23.3193 7.75884 23.1139 9.97721 23.6269 12.0856C15.2539 11.5077 8.49741 8.08194 3.35751 1.8082C2.10367 3.96817 1.7145 6.51971 2.26778 8.95298C2.82106 11.3862 4.27603 13.522 6.34197 14.9335C4.93264 14.9335 3.44041 14.5208 1.86528 13.6953C1.86528 13.6953 1.49223 21.3724 9.82383 23.4774C8.2487 23.8901 6.75648 23.9314 5.34715 23.6012C5.34715 23.6012 7.21244 30.1639 14.5492 30.4115C10.4041 33.7135 5.5544 35.0756 0 34.4977C4.31246 37.2975 9.31977 38.8525 14.466 38.99C19.6123 39.1276 24.6962 37.8423 29.1533 35.2769C33.6103 32.7115 37.2663 28.9663 39.7151 24.4572C42.164 19.9481 43.31 14.8514 43.0259 9.73293C44.9326 8.41214 46.5907 6.71988 48 4.65615Z" fill="#1D9BF0"/>
</svg>
